<svg width="64" height="64" viewBox="0 0 64 64" fill="none" xmlns="http://www.w3.org/2000/svg">
<path d="M48 48.0282V53.2732H16V48.0282C16 40.6941 21.0136 34.5218 27.8261 32.7004V32.2996C25.48 31.6723 23.3472 30.529 21.5591 29C20.2287 27.8623 19.0891 26.5111 18.1943 25L28.3878 25.7384V25.7384C30.7928 25.9126 33.2072 25.9126 35.6122 25.7384V25.7384L45.8057 25C44.9109 26.5111 43.7713 27.8623 42.4409 29C40.6528 30.529 38.52 31.6723 36.1739 32.2996V32.7004C42.9864 34.5218 48 40.6941 48 48.0282Z" fill="#DEE3FF"/>
<path d="M48 11.7268V16.9718C48 19.9009 47.2003 22.6447 45.8057 25L35.6122 25.7384C33.2072 25.9126 30.7928 25.9126 28.3878 25.7384L18.1943 25C16.7997 22.6447 16 19.9009 16 16.9718V11.7268H48Z" fill="#DEE3FF"/>
<path fill-rule="evenodd" clip-rule="evenodd" d="M15 53.2732C15 55.8912 17.1371 58 19.7565 58H44.2435C46.8629 58 49 55.8912 49 53.2732V48.0282C49 41.0512 44.7359 35.0707 38.6617 32.5C40.2832 31.8139 41.775 30.8852 43.0908 29.76C44.504 28.5516 45.715 27.116 46.6662 25.5095C48.1494 23.0045 49 20.0854 49 16.9718V11.7268C49 9.10876 46.8629 7 44.2435 7H19.7565C17.1371 7 15 9.10876 15 11.7268V16.9718C15 20.0854 15.8506 23.0045 17.3338 25.5095C18.285 27.116 19.496 28.5516 20.9092 29.76C22.225 30.8852 23.7168 31.8139 25.3383 32.5C19.2641 35.0707 15 41.0512 15 48.0282V53.2732ZM17.1915 54.2732H46.8085C46.4062 55.2815 45.4135 56 44.2435 56H19.7565C18.5864 56 17.5938 55.2815 17.1915 54.2732ZM47 52.2732H17V48.0282C17 41.1631 21.6935 35.3752 28.0844 33.6665L28.8261 33.4682V31.5318L28.0844 31.3335C25.8854 30.7456 23.8859 29.6739 22.209 28.24C21.471 27.6089 20.7958 26.9079 20.1938 26.1474L28.3155 26.7357C30.7686 26.9134 33.2314 26.9134 35.6845 26.7357L43.8062 26.1474C43.2043 26.9079 42.529 27.6089 41.791 28.24C40.1141 29.6739 38.1146 30.7456 35.9156 31.3335L35.1739 31.5318V33.4682L35.9156 33.6665C42.3065 35.3752 47 41.1631 47 48.0282V52.2732ZM45.2008 24.0412L35.54 24.741C33.1831 24.9117 30.8169 24.9117 28.46 24.741L18.7992 24.0412C17.6516 21.939 17 19.5321 17 16.9718V12.7268H47V16.9718C47 19.5321 46.3484 21.939 45.2008 24.0412ZM46.8085 10.7268H17.1915C17.5938 9.71846 18.5864 9 19.7565 9H44.2435C45.4135 9 46.4062 9.71846 46.8085 10.7268Z" fill="black"/>
<path d="M44.2435 57H19.7565C17.6819 57 16 55.3315 16 53.2732H48C48 55.3315 46.3181 57 44.2435 57Z" fill="#FFCCA7"/>
<path fill-rule="evenodd" clip-rule="evenodd" d="M16 11.7268C16 9.66853 17.6819 8 19.7565 8H44.2435C46.3181 8 48 9.66853 48 11.7268H16ZM48 16.9718L44.4035 17.4214C36.1665 18.451 27.8335 18.451 19.5965 17.4214L16 16.9718C16 19.9009 16.7997 22.6447 18.1943 25C19.0891 26.5111 20.2287 27.8623 21.5591 29C23.3472 30.529 25.48 31.6723 27.8261 32.2996C30.5699 32.9569 33.4301 32.9569 36.1739 32.2996C38.52 31.6723 40.6528 30.529 42.4409 29C43.7713 27.8623 44.9109 26.5111 45.8057 25C47.2003 22.6447 48 19.9009 48 16.9718Z" fill="#FFCCA7"/>
<path fill-rule="evenodd" clip-rule="evenodd" d="M15 53.2732C15 55.8912 17.1371 58 19.7565 58H44.2435C46.8629 58 49 55.8912 49 53.2732V48.0282C49 41.0512 44.7359 35.0707 38.6617 32.5C40.2832 31.8139 41.775 30.8852 43.0908 29.76C44.504 28.5516 45.715 27.116 46.6662 25.5095C48.1494 23.0045 49 20.0854 49 16.9718V11.7268C49 9.10876 46.8629 7 44.2435 7H19.7565C17.1371 7 15 9.10876 15 11.7268V16.9718C15 20.0854 15.8506 23.0045 17.3338 25.5095C18.285 27.116 19.496 28.5516 20.9092 29.76C22.225 30.8852 23.7168 31.8139 25.3383 32.5C19.2641 35.0707 15 41.0512 15 48.0282V53.2732ZM28.0718 31.3301C25.8778 30.7415 23.8827 29.6712 22.209 28.24C20.9613 27.1731 19.8931 25.9063 19.0548 24.4905C17.9311 22.5927 17.2198 20.4262 17.0432 18.11L19.4725 18.4137C27.7918 19.4536 36.2082 19.4536 44.5275 18.4137L46.9568 18.11C46.7802 20.4262 46.0689 22.5927 44.9452 24.4905C44.1069 25.9063 43.0387 27.1731 41.791 28.24C40.1173 29.6712 38.1222 30.7415 35.9282 31.3301C33.3457 31.9467 30.6543 31.9467 28.0718 31.3301ZM35.5246 33.4613C33.2654 33.8898 30.9475 33.9026 28.6847 33.4998C28.6149 33.4873 28.5451 33.4745 28.4754 33.4613C28.3655 33.5552 28.2334 33.6267 28.0844 33.6665C21.6935 35.3752 17 41.1631 17 48.0282V52.2732H47V48.0282C47 41.1631 42.3065 35.3752 35.9156 33.6665C35.7666 33.6267 35.6345 33.5552 35.5246 33.4613ZM46.8085 54.2732C46.4062 55.2815 45.4135 56 44.2435 56H19.7565C18.5864 56 17.5938 55.2815 17.1915 54.2732H46.8085ZM47 16.0891L44.2794 16.4291C36.1249 17.4484 27.8751 17.4484 19.7206 16.4291L17 16.0891V12.7268H47V16.0891ZM46.8085 10.7268H17.1915C17.5938 9.71846 18.5864 9 19.7565 9H44.2435C45.4135 9 46.4062 9.71846 46.8085 10.7268Z" fill="black"/>
<path d="M44.2435 57H19.7565C17.6819 57 16 55.3315 16 53.2732H48C48 55.3315 46.3181 57 44.2435 57Z" fill="#D4B1FF"/>
<path d="M19.7565 8H44.2435C46.3181 8 48 9.66853 48 11.7268H16C16 9.66853 17.6819 8 19.7565 8Z" fill="#D4B1FF"/>
<path fill-rule="evenodd" clip-rule="evenodd" d="M15 53.2732C15 55.8912 17.1371 58 19.7565 58H44.2435C46.8629 58 49 55.8912 49 53.2732V48.0282C49 41.0512 44.7359 35.0707 38.6617 32.5C40.2832 31.8139 41.775 30.8852 43.0908 29.76C44.504 28.5516 45.715 27.116 46.6662 25.5095C48.1494 23.0045 49 20.0854 49 16.9718V11.7268C49 9.10876 46.8629 7 44.2435 7H19.7565C17.1371 7 15 9.10876 15 11.7268V16.9718C15 20.0854 15.8506 23.0045 17.3338 25.5095C18.285 27.116 19.496 28.5516 20.9092 29.76C22.225 30.8852 23.7168 31.8139 25.3383 32.5C19.2641 35.0707 15 41.0512 15 48.0282V53.2732ZM17.1915 54.2732H46.8085C46.4062 55.2815 45.4135 56 44.2435 56H19.7565C18.5864 56 17.5938 55.2815 17.1915 54.2732ZM47 52.2732H17V48.0282C17 41.1631 21.6935 35.3752 28.0844 33.6665L28.8261 33.4682V31.5318L28.0844 31.3335C25.8854 30.7456 23.8859 29.6739 22.209 28.24C20.9613 27.1731 19.8931 25.9063 19.0548 24.4905C17.7488 22.2849 17 19.7164 17 16.9718V12.7268H47V16.9718C47 19.7164 46.2512 22.2849 44.9452 24.4905C44.1069 25.9063 43.0387 27.1731 41.791 28.24C40.1141 29.6739 38.1146 30.7456 35.9156 31.3335L35.1739 31.5318V33.4682L35.9156 33.6665C42.3065 35.3752 47 41.1631 47 48.0282V52.2732ZM46.8085 10.7268H17.1915C17.5938 9.71846 18.5864 9 19.7565 9H44.2435C45.4135 9 46.4062 9.71846 46.8085 10.7268Z" fill="black"/>
<path d="M33 37C33 37.5523 32.5523 38 32 38C31.4477 38 31 37.5523 31 37C31 36.4477 31.4477 36 32 36C32.5523 36 33 36.4477 33 37Z" fill="black"/>
<path d="M33 40C33 40.5523 32.5523 41 32 41C31.4477 41 31 40.5523 31 40C31 39.4477 31.4477 39 32 39C32.5523 39 33 39.4477 33 40Z" fill="black"/>
<path fill-rule="evenodd" clip-rule="evenodd" d="M19.1104 50.9939C19.6594 50.9329 20.0549 50.4384 19.9939 49.8895C19.8391 48.4965 19.8872 46.2628 20.5309 44.1688C21.1739 42.0771 22.3611 40.2662 24.3846 39.423C24.8944 39.2106 25.1355 38.6252 24.9231 38.1154C24.7107 37.6056 24.1252 37.3645 23.6154 37.5769C20.8389 38.7338 19.3595 41.1728 18.6192 43.5811C17.8795 45.9871 17.8276 48.5034 18.0061 50.1104C18.0671 50.6593 18.5615 51.0548 19.1104 50.9939Z" fill="black"/>
</svg>
